<?xml version="1.0" encoding="UTF-8"?>
<svg id="Laag_1" xmlns="http://www.w3.org/2000/svg" version="1.1" viewBox="0 0 420.57 181.15">
  <!-- Generator: Adobe Illustrator 30.5.1, SVG Export Plug-In . SVG Version: 2.1.4 Build 3)  -->
  <defs>
    <style>
      .st0, .st1, .st2 {
        fill: #F4EDE3;
      }

      .st1 {
        stroke: #F4EDE3;
      }

      .st1, .st2 {
        stroke-miterlimit: 10;
        stroke-width: 2px;
      }

      .st2 {
        stroke: #F4EDE3;
      }
    </style>
  </defs>
  <g>
    <path class="st0" d="M14.79,52.61c13.05-15.59,33.06-26.18,54.98-26.18,12.7,0,24.01,3.68,32.19,10.44,8.35,6.91,13.57,16.91,13.57,29.12,0,14.41-5.92,28.68-15.83,40.3-12.7,14.86-32.19,25.15-54.63,25.15-11.48,0-21.58-3.24-29.41-8.83C5.92,115.56,0,104.53,0,91.14s5.57-27.51,14.79-38.54ZM78.65,107.32c8.18-13.24,13.92-32.36,14.27-48.69.35-17.5-5.05-30.74-22.1-30.74-11.48,0-20.36,5.74-28.19,15-11.31,13.68-19.66,36.48-20.18,56.33-.35,17.94,5.92,30.74,22.62,30.74,13.75,0,25.06-8.97,33.58-22.65Z"/>
    <path class="st0" d="M94.91,82.16c5.57,0,11.66.15,15.31.59.49.06.97.15,1.44.29.19-.78.39-1.56.58-2.35h-21.46c-.18.49-.35.98-.51,1.47h4.64Z"/>
    <path class="st0" d="M85.33,80.69h-44.88l-.35.88c3.13.15,9.57,1.18,12.35,2.06,4,1.62,3.48,4.71,2.61,7.8-3.76,11.9-7.52,23.8-11.27,35.7,1.68.01,3.07-.1,4.06-.22,1.09-.13,5.1-.66,9.77-2.77,1.33-.6,2.29-1.14,2.6-1.31,2.31-1.3,3.86-2.58,4.79-3.34,1.19-.98,2.63-2.3,4.12-4,.37-.45.78-1.03,1.16-1.76.37-.72.56-1.31.64-1.57.95-3,3.58-11.73,3.58-11.73h0s1.78-5.77,5.57-18.1c1.68-.06,3.36-.11,5.04-.17.07-.49.14-.98.2-1.47Z"/>
    <path class="st0" d="M118.75,152.61c-4.7,5.88-15.14,17.65-23.14,23.09-5.05,3.38-15.14,3.97-26.62,3.97-17.23,0-20.71-.74-16.53-13.38l12.01-36.77h13.57c8.18,0,11.48,2.35,13.05,5,2.26,3.97,2.26,11.33,1.57,15.59h1.04l13.57-41.18h-1.39c-2.61,5.44-7.13,11.33-10.44,13.83-3.13,2.35-8.53,5.3-16.7,5.3h-13.75l1.72-5.2c-1.24,1.12-2.58,2.15-3.97,3.07-2.23,1.48-4.67,2.76-7.24,3.58-.17.18-.4.3-.64.3-.76,0-1.51,0-2.27.07-.17.02-.35.04-.52.06-.1.02-.2.03-.29.05-.04,0-.07.01-.11.02-.08.02-.05,0,.09-.02-.17,0-.38.1-.54.15-.18.06-.36.13-.54.2-.4.16-.83.03-1.11-.26-2.44.48-4.94.71-7.44.71l-13.33,40.51c-1.04,3.38-3.13,6.18-7.48,7.5-2.96.88-10.96,1.47-13.57,1.47l-.35.88h101.44l11.31-28.53h-1.39Z"/>
    <path class="st0" d="M116.57,80.69c-.04.19-.08.39-.12.58-.29,1.33-.63,2.59-1.01,3.78,4.78,3.84,7.96,11.83,8.87,19.9h1.39l8-24.27h-17.14Z"/>
  </g>
  <g>
    <path class="st0" d="M159.79,169.94c.94-.3,1.39-.93,1.61-1.69l5.66-17.97c.19-.7.3-1.39-.56-1.75-.6-.2-1.99-.43-2.66-.46l.08-.2h20.09l-1.72,5.46h-.3c-.26-2.42-1.39-4.8-3.04-5-.79-.1-2.1-.13-3.3-.13h-3.19l-3.26,10.32h2.96c1.76,0,2.92-.66,3.6-1.19.71-.56,1.69-1.89,2.25-3.11h.3l-2.92,9.27h-.23c.15-.96.15-2.61-.34-3.51-.34-.6-1.05-1.12-2.81-1.12h-2.92l-2.59,8.27c-.9,2.85-.15,3.01,3.56,3.01,2.47,0,4.65-.13,5.73-.89,1.72-1.22,3.97-3.87,4.99-5.2h.3l-2.44,6.42h-21.85l.07-.2c.56,0,2.29-.13,2.92-.33Z"/>
    <path class="st0" d="M182.5,169.81c1.65-.56,2.89-1.56,3.82-2.28,1.91-1.52,5.77-4.83,8.92-7.58-1.05-2.61-2.66-6.42-3.82-9.13-.52-1.22-1.05-1.92-2.1-2.35-.6-.23-1.42-.36-2.32-.4l.08-.2h13.91l-.07.2c-2.25.1-4.72.43-4.72,1.62,0,.4.22,1.26.67,2.45.49,1.26,1.31,3.28,2.14,5.13,1.46-1.26,4.24-3.71,6.11-5.56,1.12-1.16,1.95-2.05,1.99-2.42,0-.79-1.31-1.12-3.67-1.22l.08-.2h9.82l-.04.2c-.71.03-1.57.17-2.36.43-1.61.56-2.77,1.49-3.79,2.28-2.66,2.12-6.03,5.26-7.95,6.95,1.12,2.88,2.89,7.08,4.05,9.79.41.96.86,1.65,1.5,2.02.71.56,1.39.63,2.77.73l-.11.2h-13.87l.08-.2c2.59-.13,4.8-.5,4.8-1.69.04-.33-.19-1.09-.6-2.25-.52-1.52-1.42-3.71-2.36-5.96-2.66,2.28-5.25,4.57-6.9,6.12-1.31,1.26-2.14,2.18-2.14,2.48,0,.89,1.35,1.16,3.64,1.29l-.08.2h-9.82l.07-.2c.75-.07,1.5-.2,2.29-.46Z"/>
    <path class="st0" d="M215.03,151.87c2.89-2.78,6.82-4.47,11.13-4.47,2.55,0,4.8.96,6.07,1.89l1.84-1.75h.3l-1.84,8.21h-.34c-.34-4.37-1.99-7.97-6.45-7.97-2.92,0-5.7,2.18-7.61,5.43-1.46,2.48-2.4,5.59-2.47,8.74-.08,4.53,1.87,8.07,6.48,8.07,3.71,0,6.45-2.18,8.88-5.46l.34.17c-2.17,3.18-5.1,6.25-10.68,6.25-6.18,0-10.16-3.47-10.16-8.44,0-4.2,1.72-7.94,4.5-10.65Z"/>
    <path class="st0" d="M233.88,169.94c.94-.3,1.39-.96,1.61-1.72l5.7-18c.19-.7.22-1.32-.67-1.69-.6-.23-1.91-.43-2.59-.46l.08-.2h12.56l-.08.2c-.71.03-2.17.2-2.89.36-.97.26-1.42.96-1.65,1.65l-5.36,17.01c-.9,2.85-.26,3.04,3.71,3.04,2.32,0,4.42-.16,5.4-.83,1.5-1.06,3.97-3.74,5.17-5.29h.34l-2.51,6.45h-21.81l.07-.2c.56,0,2.29-.13,2.92-.33Z"/>
    <path class="st0" d="M257.98,165.67c0-.89.15-1.89.52-3.01l3.86-12.41c.23-.69.23-1.32-.6-1.69-.52-.2-1.91-.46-2.51-.5l.07-.2h12.44l-.08.2c-.71.03-2.17.2-2.89.36-.97.26-1.42.99-1.65,1.69l-3.75,11.91c-.41,1.39-.67,2.68-.67,3.74,0,2.32,1.8,4.04,5.32,4.04,4.69,0,7.68-2.35,9.18-7.11l3-9.36c.37-1.06,1.16-3.71.11-4.43-.64-.46-2.74-.79-3.56-.83l.08-.2h10.27l-.08.2c-.67.03-2.81.23-3.64.66-1.24.63-1.91,2.32-2.59,4.43l-3.11,9.69c-1.76,5.36-4.72,8.14-10.94,8.14-5.66,0-8.81-1.99-8.81-5.33Z"/>
    <path class="st0" d="M282.3,170.8h-.34l2.06-7.81h.3c.79,4.5,3,7.58,7.42,7.58,3.9,0,6.07-2.38,6.07-5.03,0-1.75-.82-2.78-2.32-3.71-.75-.46-4.2-2.18-4.83-2.58-2.14-1.29-3.41-2.68-3.41-5.03,0-3.81,4.05-6.82,9.52-6.82,2.32,0,5.17.86,6.18,1.72l1.87-1.59h.34l-2.06,7.54h-.26c-.52-4.1-2.32-7.31-6.3-7.31-2.85,0-5.28,1.95-5.28,4.63,0,1.79.82,2.78,2.66,3.81.49.3,3.64,1.85,4.42,2.32,2.4,1.36,3.71,2.71,3.71,5,0,4.27-4.57,7.38-10.53,7.38-2.92,0-6.18-.96-7.27-1.72l-1.95,1.62Z"/>
    <path class="st0" d="M305.01,169.97c.97-.3,1.39-.93,1.61-1.62l5.73-18.17c.19-.66.23-1.29-.64-1.65-.53-.2-1.91-.43-2.51-.46l.08-.2h12.37l-.08.2c-.71.03-2.1.2-2.81.36-.97.26-1.42.96-1.65,1.65l-5.73,18.2c-.23.7-.15,1.26.67,1.59.37.13,1.84.36,2.59.4l-.04.2h-12.41l.04-.2c.67-.03,2.21-.17,2.77-.3Z"/>
    <path class="st0" d="M323.67,148.47c-.56-.23-1.39-.36-2.14-.4l.08-.2h11.73l-.08.2c-1.35.07-2.55.23-3.15.46-.86.33-1.12.99-1.12,1.62l.34,16.21,12.33-14.53c.34-.43.67-.83.94-1.22.3-.43.49-.83.52-1.09.04-.99-2.44-1.39-4.01-1.46l.08-.2h9.45l-.04.2c-.56.03-1.57.23-2.4.56-1.12.5-2.21,1.42-3.45,2.85l-16.64,19.32h-1.09l-.49-20.48c-.04-.96-.11-1.52-.86-1.85Z"/>
    <path class="st0" d="M343.83,169.94c.94-.3,1.39-.93,1.61-1.69l5.66-17.97c.19-.7.3-1.39-.56-1.75-.6-.2-1.99-.43-2.66-.46l.08-.2h20.09l-1.72,5.46h-.3c-.26-2.42-1.39-4.8-3.04-5-.79-.1-2.1-.13-3.3-.13h-3.19l-3.26,10.32h2.96c1.76,0,2.92-.66,3.6-1.19.71-.56,1.69-1.89,2.25-3.11h.3l-2.92,9.27h-.23c.15-.96.15-2.61-.34-3.51-.34-.6-1.05-1.12-2.81-1.12h-2.92l-2.59,8.27c-.9,2.85-.15,3.01,3.56,3.01,2.47,0,4.65-.13,5.73-.89,1.72-1.22,3.97-3.87,4.98-5.2h.3l-2.44,6.42h-21.85l.08-.2c.56,0,2.29-.13,2.92-.33Z"/>
    <g>
      <path class="st0" d="M131.75,111.04c4.05-4.59,10.26-7.7,17.07-7.7,3.94,0,7.45,1.08,9.99,3.07,2.59,2.03,4.21,4.97,4.21,8.57,0,4.24-1.84,8.44-4.92,11.85-3.94,4.37-9.99,7.4-16.96,7.4-3.56,0-6.7-.95-9.13-2.6-3.02-2.08-4.86-5.32-4.86-9.26s1.73-8.09,4.59-11.33ZM151.57,127.13c2.54-3.89,4.32-9.52,4.43-14.32.11-5.15-1.57-9.04-6.86-9.04-3.56,0-6.32,1.69-8.75,4.41-3.51,4.02-6.1,10.73-6.27,16.57-.11,5.28,1.84,9.04,7.02,9.04,4.27,0,7.78-2.64,10.43-6.66Z"/>
      <path class="st0" d="M168.69,127.26c0-1.17.22-2.47.76-3.94l5.56-16.22c.32-.91.32-1.73-.86-2.21-.76-.26-2.75-.61-3.62-.65l.11-.26h17.93l-.11.26c-1.03.04-3.13.26-4.16.48-1.4.35-2.05,1.3-2.38,2.21l-5.4,15.57c-.59,1.82-.97,3.5-.97,4.89,0,3.03,2.59,5.28,7.67,5.28,6.75,0,11.07-3.07,13.23-9.3l4.32-12.24c.54-1.38,1.67-4.84.16-5.8-.92-.61-3.94-1.04-5.13-1.08l.11-.26h14.8l-.11.26c-.97.04-4.05.3-5.24.87-1.78.82-2.75,3.03-3.73,5.8l-4.48,12.67c-2.54,7.01-6.81,10.64-15.77,10.64-8.16,0-12.69-2.6-12.69-6.96Z"/>
      <path class="st0" d="M206.5,132.89c1.4-.39,2-1.12,2.32-2.12l8.26-23.75c.27-.87.32-1.69-.86-2.16-.76-.26-2.81-.56-3.67-.61l.11-.26h16.53c7.35,0,15.56,2.55,15.45,11.42-.05,4.33-1.89,8.78-5.94,12.03-4.81,3.98-12.1,6.1-19.82,6.1h-16.42l.11-.26c.97-.04,3.13-.22,3.94-.39ZM227.73,104.38l-2.92.09-8.86,25.39c-.81,2.42.22,3.29,3.24,3.29,6,0,10.86-2.64,14.04-6.58,2.54-3.11,3.89-6.92,4.05-10.86.38-7.53-2.75-11.33-9.56-11.33Z"/>
      <path class="st0" d="M247.22,132.84c1.35-.39,2-1.21,2.32-2.21l8.16-23.49c.27-.91.43-1.82-.81-2.29-.86-.26-2.86-.56-3.83-.61l.11-.26h28.95l-2.49,7.14h-.43c-.38-3.16-2-6.27-4.38-6.53-1.13-.13-3.02-.17-4.75-.17h-4.59l-4.7,13.5h4.27c2.54,0,4.21-.87,5.19-1.56,1.03-.74,2.43-2.47,3.24-4.07h.43l-4.21,12.11h-.32c.22-1.25.22-3.42-.49-4.58-.49-.78-1.51-1.47-4.05-1.47h-4.21l-3.73,10.81c-1.3,3.72-.22,3.94,5.13,3.94,3.56,0,6.7-.17,8.26-1.17,2.49-1.6,5.73-5.06,7.18-6.79h.43l-3.51,8.39h-31.49l.11-.26c.81,0,3.29-.17,4.21-.43Z"/>
      <path class="st0" d="M290.54,108.27c4.05-3.03,9.4-4.89,15.39-4.89,3.73,0,6.86,1,9.18,2.55l2.86-2.38h.43l-3.02,10.47h-.38c-.49-5.62-3.29-10.21-9.83-10.21-3.83,0-7.56,2.16-10.43,5.62-2.92,3.55-4.81,8.39-4.86,13.63-.05,6.4,2.27,10.64,7.94,10.64,4.16,0,6.43-2.47,7.83-6.62l1.08-3.16c.38-1.08.27-2.08-.97-2.51-1.19-.43-3.94-.65-4.92-.69l.11-.26h18.64l-.05.26c-1.03.13-2.59.26-3.67.61-1.51.48-2.05,1.25-2.38,2.25l-3.57,10.73-.32.09-2.38-2.73c-3.78,1.47-6.48,2.51-10.05,2.51-7.72,0-14.69-3.29-14.69-11.2,0-5.67,3.02-11.03,8.05-14.71Z"/>
      <path class="st0" d="M320.78,132.84c1.35-.39,2-1.21,2.32-2.21l8.16-23.49c.27-.91.43-1.82-.81-2.29-.86-.26-2.86-.56-3.83-.61l.11-.26h28.95l-2.49,7.14h-.43c-.38-3.16-2-6.27-4.38-6.53-1.13-.13-3.02-.17-4.75-.17h-4.59l-4.7,13.5h4.27c2.54,0,4.21-.87,5.19-1.56,1.03-.74,2.43-2.47,3.24-4.07h.43l-4.21,12.11h-.32c.22-1.25.22-3.42-.49-4.58-.49-.78-1.51-1.47-4.05-1.47h-4.21l-3.73,10.81c-1.3,3.72-.22,3.94,5.13,3.94,3.57,0,6.7-.17,8.26-1.17,2.49-1.6,5.73-5.06,7.18-6.79h.43l-3.51,8.39h-31.49l.11-.26c.81,0,3.29-.17,4.21-.43Z"/>
      <path class="st0" d="M355.62,132.89c1.4-.39,2-1.21,2.32-2.12l8.26-23.75c.27-.87.32-1.69-.92-2.16-.76-.26-2.75-.56-3.62-.61l.11-.26h17.83l-.11.26c-1.03.04-3.02.26-4.05.48-1.4.35-2.05,1.25-2.38,2.16l-8.26,23.79c-.32.91-.22,1.64.97,2.08.54.17,2.65.48,3.73.52l-.05.26h-17.88l.05-.26c.97-.04,3.19-.22,4-.39Z"/>
      <path class="st0" d="M376.95,132.28c1.46-.74,2.65-2.51,3.78-5.93l5.62-16.78c.43-1.25.7-2.99-.59-4.07-1.03-.82-2.86-1.21-5.02-1.25l.11-.26h11.88l12.42,21.89,4.86-14.71c.49-1.38,1.67-4.85.11-5.84-.86-.61-3.78-1.04-4.97-1.08l.05-.26h14.53l-.05.26c-.97.04-3.94.39-5.13.91-1.78.82-2.81,3.07-3.73,5.84l-7.62,22.8h-.97l-14.53-26.04-6.1,18.56c-.32.91-.86,2.6-.86,3.98,0,.82.16,1.56.65,1.95.86.69,4.21,1,5.19,1.04l-.11.26h-14.64l.11-.26c1.24-.04,4-.43,5.02-1Z"/>
    </g>
  </g>
  <path class="st2" d="M226.94,47.1c-3.34-.28-6.1-.66-7.71-.88-8.21-1.14-14.22-2.61-16.09-3.05-11.32-2.72-39.76-8.82-63.15-12.58-16.86-2.71-26.27-3.46-31.52-3.79,0,0-12.67-.79-24.66-.43-3.96.12-8.41.39-11.6.58-1.67.1-3.56.22-5.94.45-.2.02-1.5.15-2.05.21-5.15.57-11.17,2.75-11.13,2.86.02.08,2.78-.96,7.33-2.05,1.97-.47,8.09-1.86,22-2.56,2.44-.12,9.63-.45,19.37-.27,1.31.02,8.75.17,17.2.78,19.19,1.4,36.15,4.69,53.24,8,14.13,2.74,27.05,5.73,31.15,6.72,1.69.41,9,2.18,16.37,3.18,3.6.49,7.45.87,7.45.87,1.3,0,4.32.43,6.93.58,6.26.36,11.16-.09,18-.72,2.96-.27,5.46-.5,8.76-.99,1.03-.15,3.14-.48,6.27-.92,2.44-.34,3.66-.51,3.67-.47.04.22-10.46,3.2-22.92,4.37-8.39.79-15.58.57-20.99.12Z"/>
  <path class="st1" d="M277.77,29.97c-2.6-1.5-11.5-6.56-21.57-11.41-5.66-2.73-11.56-5.57-18.5-8.07-16.44-5.93-30.65-7.04-36.48-7.32-15.18-.74-26.64,1.53-37.91,3.77-10.3,2.05-18.78,4.59-24.01,6.18-10.67,3.23-20.59,6.9-23.93,8.15-7.13,2.68-12.45,4.89-12.52,4.71-.08-.19,5.58-2.79,9.5-4.5,1.19-.52,5.23-2.26,10.77-4.38,1.75-.67,3.38-1.27,4.94-1.83,1.8-.64,6.21-2.22,11.99-4.02,3.91-1.22,11.01-3.42,20.32-5.59,6.1-1.43,10.36-2.42,16.34-3.27,11.94-1.69,21.17-1.44,24.61-1.29,6.77.29,12.33,1.07,16.12,1.72,9.82,1.68,17.01,4.09,21.61,5.66,7.12,2.42,12.24,4.73,17.93,7.29,3.74,1.69,8.95,4.05,15.52,7.63,1.02.56,4.08,2.32,10.21,5.83,9.09,5.22,9.73,5.62,11.84,6.69,4.54,2.31,7.85,3.97,12.61,5.4,4.06,1.22,7.39,1.73,10.12,2.14,3.05.46,5.14.61,11.15,1.03,6.37.44,9.56.66,12.61.86,13.94.9,25.9,3.87,29.51,4.82,5.56,1.45,11.67,3.08,19.2,6.68,7.33,3.51,11.48,6.72,12.57,7.57,4.99,3.93,8.19,7.79,9.64,9.64,2.31,2.96,3.98,5.7,5.14,7.85.27.58.49,1.05.64,1.39,1.23,2.73,1.67,4.14,1.88,4.86,0,0,0,0,0,0-.88-1.95-2.21-4.6-4.14-7.54-1.19-1.82-5.52-8.27-13.82-14.44-10.88-8.08-21.96-11-33.02-13.9-4-1.05-12.38-3.22-23.05-4.15-7.51-.66-14.44-.99-14.44-.99-4.44-.23-6.93-.28-11.3-.74-5.53-.58-8.61-1.24-10.09-1.58-3.43-.79-6.07-1.66-7.41-2.13-4.16-1.45-7.35-3.03-11.21-5.09-6.12-3.27-9.96-5.7-13.36-7.65Z"/>
  <path class="st1" d="M402.86,65.97c-3.83-3.58-7.55-5.74-10.33-7.06-3.21-1.52-5.89-2.26-8.74-3.02-3.53-.95-7.3-2.02-12.15-2.24-11.53-.52-19.98,3.37-21.87,4.28-2.76,1.32-4.92,2.72-6.42,3.79,2.76-1.15,6.59-2.51,11.28-3.5,2.38-.5,9.55-1.86,18.96-1.07,3.49.29,8.74.77,15.23,3.07,1.8.64,8.25,3.03,14.77,7.93.95.71,3.91,2.96,6.77,5.96.64.68.44.51,3.42,3.78,1.22,1.35,1.63,1.79,2.18,2.55,1.44,1.99,2.16,3.83,2.11,3.86-.06.03-1.57-3.28-3.32-6.11-2.01-3.25-5.52-7.78-11.88-12.22Z"/>
</svg>